<?xml version='1.0' encoding='utf-8'?>
<svg xmlns="http://www.w3.org/2000/svg" id="Layer_1" data-name="Layer 1" viewBox="0 0 2233.64 1458.01"><defs><style>.cls-1{fill:#1a3561;}.cls-2{fill:#231f20;}.cls-3{fill:#7f8b8c;}.cls-4{fill:#fff;}</style></defs><title>Untitled-4</title><g id="_Group_" data-name="&lt;Group&gt;"><g id="_Group_2" data-name="&lt;Group&gt;"><g id="_Group_3" data-name="&lt;Group&gt;"><path id="_Path_" data-name="&lt;Path&gt;" class="cls-1" d="M1234.84,385.35c-2.89-1.41-5.69-3.15-8.67-4.81-100.7-56.12-151.59-52.41-241.75,19.28-14.22,11.3-25,17.38-43.61,8.18-52.41-26-106.86-27.55-161.65-6.89-12,4.51-22.28,9.28-29.13-7.55-8.16-20,9.22-109.61,24.76-126,10.49-11.06,20.69-6.45,32.8-3.6,30.6,7.21,61.52,13.57,92.63,18,41,5.8,110-52.15,104.46-91.81-5.42-38.89-23-77.38-60.3-95.79C907.42,76.08,870.63,64.19,825,86.76,716.68,140.33,643.06,228.93,574.74,322,518.5,398.67,478.21,484.9,467.8,581.77c-4,37.52,7.45,68.36,49.2,71.93,48.71,4.17,93.54,21.28,139.79,33.73,109,29.35,463.68,51,573.3,5.17Z" transform="translate(-383.18 -21)"/><path id="_Path_2" data-name="&lt;Path&gt;" class="cls-1" d="M1765.16,380.49c2.89-1.41,5.69-3.15,8.67-4.81,100.7-56.12,151.59-52.41,241.75,19.28,14.22,11.3,25,17.38,43.61,8.18,52.41-26,106.86-27.55,161.65-6.89,12,4.51,22.28,9.28,29.13-7.55,8.16-20-9.22-109.61-24.76-126-10.49-11.06-20.69-6.45-32.8-3.6-30.6,7.21-61.52,13.57-92.63,18-41,5.8-110-52.15-104.46-91.81,5.42-38.89,23-77.38,60.3-95.79,36.95-18.25,73.74-30.15,119.38-7.57,108.31,53.57,181.93,142.17,250.25,235.27,56.24,76.64,96.53,162.87,106.94,259.74,4,37.52-7.45,68.36-49.2,71.93-48.71,4.17-93.54,21.28-139.79,33.73-109,29.35-463.68,51-573.3,5.17Z" transform="translate(-383.18 -21)"/></g><polygon id="_Path_3" data-name="&lt;Path&gt;" class="cls-2" points="253.4 0 246.91 0 246.91 0 246.91 0.41 246.91 0.41 253.4 0.41 253.4 0.41 253.4 0 253.4 0"/><g id="_Group_4" data-name="&lt;Group&gt;"><path id="_Path_4" data-name="&lt;Path&gt;" class="cls-3" d="M1321.91,273.92c75.13,0.9,131.76,16.71,185.66,42.73,13.29,6.42,23.68,6.22,36.6-1.37,49.4-29,102.29-47.72,160.5-43,74.16,6,127.21,46.93,168,106.36,58.91,85.77,61,175.54,18.63,268.34-19.83,43.4-43.76,84.83-73.67,121.62-51.87,63.81-71.29,137.44-76.25,217.26-2.17,34.93-7,69.81-17.27,103.57-4.3,14.07-9.93,27.52-19,39.23-27.83,35.83-75.81,33.16-98.51-6-21.78-37.55-26.7-80-33.67-121.8-7.57-45.35-11.76-91.31-25.06-135.63-4-13.42-9.07-26.31-17.13-37.74-19-26.92-49.13-26.16-65.63,2.46-17.16,29.77-21.08,63.52-25.51,96.84-7.22,54.27-10.08,109.14-22.31,162.72-3.75,16.42-8.74,32.41-17.79,46.92-20.2,32.4-50.48,39.12-82.33,17.7-25.84-17.38-37-44.52-46.45-72.41-15.24-45.2-23.3-92.16-30-139.1-8.53-59.84-28.45-114.05-63.91-163.42a605.81,605.81,0,0,1-78.72-148.76C1053,505,1091.94,379.26,1197,311.61,1239.51,284.26,1286.29,272.36,1321.91,273.92Z" transform="translate(-383.18 -21)"/></g><g id="_Group_5" data-name="&lt;Group&gt;"><path id="_Path_5" data-name="&lt;Path&gt;" class="cls-4" d="M1501.61,759.41c-134.46,20.08-266.07-85.55-275.65-221.24a70.53,70.53,0,0,1,.41-12c1.3-12.8,7.12-21.91,20.88-23.43,12.73-1.41,20.58,5.55,25.39,16.45,8.67,19.63,8.36,41.4,15.17,61.72,44.91,133.93,218.3,176.52,315.57,77,14.39-14.72,14.35-14.65-3.25-24.8-5.47-3.15-10.75-6.66-16-10.17-4-2.71-8.34-9.6-5.49-11,12.89-6.32,10.4-20.91,17.68-30.49,6.51-8.56,19.33-16.47,16.41-31.41-0.88-4.49,3.23-8.58,8-10,3.62-1.11,5.54-1.88,5.19-6.79-1.24-17.75,8.34-15.52,19.57-10,14.65,7.27,27.66,17.35,46,17,12.18-.23,16.57,13.65,11.38,30.63-11.54,37.78-28.89,72.91-54,103.26C1610.51,720.45,1562.17,750.8,1501.61,759.41Z" transform="translate(-383.18 -21)"/><path id="_Path_6" data-name="&lt;Path&gt;" class="cls-4" d="M1388.49,491.2c-31.42,4.54-61-18-65.3-49.88-4.25-31.34,18.75-62.11,49.53-66.25s61.9,19,66.54,49.55C1444.1,456.41,1421.17,486.48,1388.49,491.2Z" transform="translate(-383.18 -21)"/><path id="_Path_7" data-name="&lt;Path&gt;" class="cls-4" d="M1650.31,423.56c-21.33,3.22-43.6,2.41-64.81,17.75,30.6,2.28,57,7.4,74.15,36.67-20.62-1.87-37.18-10.14-55.17-12.09A313.42,313.42,0,0,0,1553,465c-7.26.4-14-.28-8.78-10.07,19.26-36,66.63-56.92,104-36.21C1649,419.06,1649.1,420.52,1650.31,423.56Z" transform="translate(-383.18 -21)"/></g></g><g id="_Group_6" data-name="&lt;Group&gt;"><path id="_Compound_Path_" data-name="&lt;Compound Path&gt;" class="cls-3" d="M383.18,1248.66h69.24q42.34,0,63.1,11.72t37.2,37.06q16.44,25.35,16.44,64.07,0,48.69-28.73,81.35t-79.2,32.66h-78V1248.66Zm52.18,41.72V1432.8h21.89q29,0,43.12-21.68t14.1-50.94a90.39,90.39,0,0,0-8-38.14q-8-17.53-20-24.6t-28.69-7.06H435.37Z" transform="translate(-383.18 -21)"/><path id="_Compound_Path_2" data-name="&lt;Compound Path&gt;" class="cls-3" d="M765.92,1291.87h-108v46.53h84.92v42.71H657.9v49.53h108v44.87h-162V1248.66h162v43.21Z" transform="translate(-383.18 -21)"/><path id="_Compound_Path_3" data-name="&lt;Compound Path&gt;" class="cls-3" d="M972.33,1248.66v226.86H927l-88.78-153.23q0.16,5.82.33,7.64a89.13,89.13,0,0,1,.66,9.8v135.78H797.83V1248.66h57.28l77.17,133.79q-1-10-1-15.13V1248.66h41Z" transform="translate(-383.18 -21)"/><path id="_Compound_Path_4" data-name="&lt;Compound Path&gt;" class="cls-3" d="M1161.63,1248.66v44.87h-56.18v182h-53.85v-182H995.11v-44.87h166.53Z" transform="translate(-383.18 -21)"/><path id="_Compound_Path_5" data-name="&lt;Compound Path&gt;" class="cls-3" d="M1279.92,1248.66l71,226.86h-57.11l-14-46.7h-73.34l-14.22,46.7h-46.6l72.71-226.86h61.53Zm-60.68,138.27h48.06l-23.82-79.6Z" transform="translate(-383.18 -21)"/><path id="_Compound_Path_6" data-name="&lt;Compound Path&gt;" class="cls-3" d="M1429.2,1430.64h90.24v44.87H1375.35V1248.66h53.85v182Z" transform="translate(-383.18 -21)"/><path id="_Compound_Path_7" data-name="&lt;Compound Path&gt;" class="cls-1" d="M1814.77,1333.08l-55.67,3.49q-1.17-48-37.47-48-41.64,0-41.63,74,0,42.71,11.32,57.92t31.65,15.21q33,0,40.3-42.88l51.51,3.16q-5,40.72-30.33,61.9t-62.07,21.2q-45,0-73.21-31.08T1621,1362q0-51.35,27.25-84.09t74.46-32.73Q1804.46,1245.17,1814.77,1333.08Z" transform="translate(-383.18 -21)"/><path id="_Compound_Path_8" data-name="&lt;Compound Path&gt;" class="cls-1" d="M1899.2,1430.64h90.24v44.87H1845.35V1248.66h53.85v182Z" transform="translate(-383.18 -21)"/><path id="_Compound_Path_9" data-name="&lt;Compound Path&gt;" class="cls-1" d="M2069.71,1248.66v226.86h-53V1248.66h53Z" transform="translate(-383.18 -21)"/><path id="_Compound_Path_10" data-name="&lt;Compound Path&gt;" class="cls-1" d="M2289.76,1248.66v226.86h-45.34l-88.77-153.23q0.16,5.82.33,7.64a89.24,89.24,0,0,1,.67,9.8v135.78h-41.38V1248.66h57.28l77.17,133.79q-1-10-1-15.13V1248.66h41Z" transform="translate(-383.18 -21)"/><path id="_Compound_Path_11" data-name="&lt;Compound Path&gt;" class="cls-1" d="M2388.31,1248.66v226.86h-53V1248.66h53Z" transform="translate(-383.18 -21)"/><path id="_Compound_Path_12" data-name="&lt;Compound Path&gt;" class="cls-1" d="M2616.82,1333.08l-55.67,3.49q-1.17-48-37.47-48-41.64,0-41.63,74,0,42.71,11.32,57.92t31.65,15.21q33,0,40.3-42.88l51.51,3.16q-5,40.72-30.33,61.9t-62.07,21.2q-45,0-73.21-31.08T2423,1362q0-51.35,27.25-84.09t74.46-32.73Q2606.51,1245.17,2616.82,1333.08Z" transform="translate(-383.18 -21)"/></g></g></svg>